<mxfile host="app.diagrams.net" agent="Mozilla/5.0 (Windows NT 10.0; Win64; x64) AppleWebKit/537.36 (KHTML, like Gecko) Chrome/129.0.0.0 Safari/537.36" version="24.8.3">
  <diagram id="C5RBs43oDa-KdzZeNtuy" name="Page-1">
    <mxGraphModel dx="1468" dy="951" grid="1" gridSize="10" guides="1" tooltips="1" connect="1" arrows="1" fold="1" page="1" pageScale="1" pageWidth="1169" pageHeight="827" math="0" shadow="0">
      <root>
        <mxCell id="WIyWlLk6GJQsqaUBKTNV-0" />
        <mxCell id="WIyWlLk6GJQsqaUBKTNV-1" parent="WIyWlLk6GJQsqaUBKTNV-0" />
        <mxCell id="AURfabwibXjbagPnXVxN-30" style="edgeStyle=orthogonalEdgeStyle;rounded=0;orthogonalLoop=1;jettySize=auto;html=1;exitX=0.5;exitY=0;exitDx=0;exitDy=0;entryX=0.5;entryY=1;entryDx=0;entryDy=0;" edge="1" parent="WIyWlLk6GJQsqaUBKTNV-1" source="WIyWlLk6GJQsqaUBKTNV-3" target="WIyWlLk6GJQsqaUBKTNV-7">
          <mxGeometry relative="1" as="geometry" />
        </mxCell>
        <mxCell id="WIyWlLk6GJQsqaUBKTNV-3" value="start" style="rounded=1;whiteSpace=wrap;html=1;fontSize=17;glass=0;strokeWidth=1;shadow=0;fillColor=#647687;fontColor=#ffffff;strokeColor=#314354;" parent="WIyWlLk6GJQsqaUBKTNV-1" vertex="1">
          <mxGeometry x="118.46181818181817" y="459.99538461538464" width="83.07740259740261" height="55.38461538461539" as="geometry" />
        </mxCell>
        <mxCell id="AURfabwibXjbagPnXVxN-2" style="edgeStyle=orthogonalEdgeStyle;rounded=0;orthogonalLoop=1;jettySize=auto;html=1;exitX=1;exitY=0.5;exitDx=0;exitDy=0;entryX=0;entryY=0.5;entryDx=0;entryDy=0;fontSize=17;" edge="1" parent="WIyWlLk6GJQsqaUBKTNV-1" source="WIyWlLk6GJQsqaUBKTNV-7" target="AURfabwibXjbagPnXVxN-0">
          <mxGeometry relative="1" as="geometry" />
        </mxCell>
        <mxCell id="WIyWlLk6GJQsqaUBKTNV-7" value="preprocessing" style="rounded=1;whiteSpace=wrap;html=1;fontSize=17;glass=0;strokeWidth=1;shadow=0;" parent="WIyWlLk6GJQsqaUBKTNV-1" vertex="1">
          <mxGeometry x="70" y="327.6923076923077" width="180.001038961039" height="55.38461538461539" as="geometry" />
        </mxCell>
        <mxCell id="AURfabwibXjbagPnXVxN-5" style="edgeStyle=orthogonalEdgeStyle;rounded=0;orthogonalLoop=1;jettySize=auto;html=1;exitX=1;exitY=0.5;exitDx=0;exitDy=0;entryX=0;entryY=0.5;entryDx=0;entryDy=0;fontSize=17;" edge="1" parent="WIyWlLk6GJQsqaUBKTNV-1" source="AURfabwibXjbagPnXVxN-0" target="AURfabwibXjbagPnXVxN-12">
          <mxGeometry relative="1" as="geometry">
            <mxPoint x="513.0794805194805" y="355.3846153846155" as="targetPoint" />
          </mxGeometry>
        </mxCell>
        <mxCell id="AURfabwibXjbagPnXVxN-0" value="simulation" style="rounded=1;whiteSpace=wrap;html=1;fontSize=17;glass=0;strokeWidth=1;shadow=0;" vertex="1" parent="WIyWlLk6GJQsqaUBKTNV-1">
          <mxGeometry x="291.53974025974026" y="327.6923076923077" width="180.001038961039" height="55.38461538461539" as="geometry" />
        </mxCell>
        <mxCell id="AURfabwibXjbagPnXVxN-24" style="edgeStyle=orthogonalEdgeStyle;rounded=0;orthogonalLoop=1;jettySize=auto;html=1;exitX=1;exitY=0.5;exitDx=0;exitDy=0;entryX=0;entryY=0.5;entryDx=0;entryDy=0;" edge="1" parent="WIyWlLk6GJQsqaUBKTNV-1" source="AURfabwibXjbagPnXVxN-12" target="AURfabwibXjbagPnXVxN-23">
          <mxGeometry relative="1" as="geometry" />
        </mxCell>
        <mxCell id="AURfabwibXjbagPnXVxN-12" value="postprocessing" style="rounded=1;whiteSpace=wrap;html=1;fontSize=17;glass=0;strokeWidth=1;shadow=0;" vertex="1" parent="WIyWlLk6GJQsqaUBKTNV-1">
          <mxGeometry x="509.9989610389611" y="327.6923076923077" width="180.001038961039" height="55.38461538461539" as="geometry" />
        </mxCell>
        <mxCell id="AURfabwibXjbagPnXVxN-14" value="end" style="rounded=1;whiteSpace=wrap;html=1;fontSize=17;glass=0;strokeWidth=1;shadow=0;fillColor=#647687;fontColor=#ffffff;strokeColor=#314354;" vertex="1" parent="WIyWlLk6GJQsqaUBKTNV-1">
          <mxGeometry x="757.6907792207792" y="459.99538461538464" width="83.07740259740261" height="55.38461538461539" as="geometry" />
        </mxCell>
        <mxCell id="AURfabwibXjbagPnXVxN-25" style="edgeStyle=orthogonalEdgeStyle;rounded=0;orthogonalLoop=1;jettySize=auto;html=1;exitX=0.5;exitY=1;exitDx=0;exitDy=0;entryX=0.5;entryY=0;entryDx=0;entryDy=0;" edge="1" parent="WIyWlLk6GJQsqaUBKTNV-1" source="AURfabwibXjbagPnXVxN-23" target="AURfabwibXjbagPnXVxN-14">
          <mxGeometry relative="1" as="geometry" />
        </mxCell>
        <mxCell id="AURfabwibXjbagPnXVxN-26" value="Yes" style="edgeLabel;html=1;align=center;verticalAlign=middle;resizable=0;points=[];fontSize=17;" vertex="1" connectable="0" parent="AURfabwibXjbagPnXVxN-25">
          <mxGeometry x="-0.1738" y="-3" relative="1" as="geometry">
            <mxPoint as="offset" />
          </mxGeometry>
        </mxCell>
        <mxCell id="AURfabwibXjbagPnXVxN-23" value="Steps finished?" style="rhombus;whiteSpace=wrap;html=1;shadow=0;fontFamily=Helvetica;fontSize=17;align=center;strokeWidth=1;spacing=6;spacingTop=-4;fillColor=#f5f5f5;strokeColor=#666666;fontColor=#333333;" vertex="1" parent="WIyWlLk6GJQsqaUBKTNV-1">
          <mxGeometry x="729.9994805194806" y="300" width="138.4623376623377" height="110.76923076923077" as="geometry" />
        </mxCell>
        <mxCell id="AURfabwibXjbagPnXVxN-27" style="edgeStyle=orthogonalEdgeStyle;rounded=0;orthogonalLoop=1;jettySize=auto;html=1;exitX=0.5;exitY=0;exitDx=0;exitDy=0;entryX=0.5;entryY=0;entryDx=0;entryDy=0;" edge="1" parent="WIyWlLk6GJQsqaUBKTNV-1" source="AURfabwibXjbagPnXVxN-23" target="WIyWlLk6GJQsqaUBKTNV-7">
          <mxGeometry relative="1" as="geometry" />
        </mxCell>
        <mxCell id="AURfabwibXjbagPnXVxN-28" value="&lt;font style=&quot;font-size: 17px;&quot;&gt;No&lt;/font&gt;" style="edgeLabel;html=1;align=center;verticalAlign=middle;resizable=0;points=[];" vertex="1" connectable="0" parent="AURfabwibXjbagPnXVxN-27">
          <mxGeometry x="-0.0935" y="1" relative="1" as="geometry">
            <mxPoint y="-2" as="offset" />
          </mxGeometry>
        </mxCell>
      </root>
    </mxGraphModel>
  </diagram>
</mxfile>
